<?xml version="1.0" standalone="no"?>
<!DOCTYPE svg PUBLIC "-//W3C//DTD SVG 20010904//EN"
 "http://www.w3.org/TR/2001/REC-SVG-20010904/DTD/svg10.dtd">
<svg version="1.0" xmlns="http://www.w3.org/2000/svg"
 width="50.000000pt" height="50.000000pt" viewBox="0 0 50.000000 50.000000"
 preserveAspectRatio="xMidYMid meet">
<g transform="translate(0.000000,50.000000) scale(0.100000,-0.100000)"
fill="#000000" stroke="none">
<path d="M132 479 c-52 -26 -109 -90 -123 -140 -6 -20 -10 -70 -8 -112 4 -65
9 -82 34 -119 17 -23 50 -56 74 -73 41 -28 48 -30 141 -30 93 0 100 2 141 30
24 17 57 50 74 74 28 41 30 48 30 141 0 93 -2 100 -30 141 -17 24 -50 57 -74
74 -38 27 -52 30 -129 33 -73 3 -94 0 -130 -19z m206 -15 c58 -24 132 -104
132 -144 0 -5 -13 -10 -30 -10 -16 0 -30 -4 -30 -10 0 -5 16 -10 35 -10 l35 0
0 -47 c-1 -124 -105 -223 -232 -223 -92 1 -177 58 -213 143 l-15 37 64 0 c63
0 64 -1 85 -35 35 -59 41 -51 62 75 l12 75 16 -43 c20 -52 33 -55 46 -13 8 28
13 31 52 31 24 0 43 5 43 10 0 6 -24 10 -54 10 -44 0 -55 -3 -58 -17 -3 -11
-10 -1 -19 27 -26 76 -44 64 -59 -40 -12 -85 -23 -109 -36 -75 -5 11 -24 15
-80 15 l-74 0 0 40 c0 81 56 164 135 201 49 23 133 24 183 3z"/>
</g>
</svg>
